<svg width="35" height="41" viewBox="0 0 35 41" fill="none" xmlns="http://www.w3.org/2000/svg">
<g filter="url(#filter0_d_645_24189)">
<path d="M30 13.6818C30 23.5455 17.5 32 17.5 32C17.5 32 5 23.5455 5 13.6818C5 10.3184 6.31696 7.09272 8.66116 4.71442C11.0054 2.33612 14.1848 1 17.5 1C20.8152 1 23.9946 2.33612 26.3388 4.71442C28.683 7.09272 30 10.3184 30 13.6818Z" fill="#CEE6B2" stroke="#9CCC65" stroke-linecap="round" stroke-linejoin="round"/>
<path d="M17.5001 17.8477C19.6802 17.8477 21.4475 16.0374 21.4475 13.8042C21.4475 11.5711 19.6802 9.76074 17.5001 9.76074C15.32 9.76074 13.5527 11.5711 13.5527 13.8042C13.5527 16.0374 15.32 17.8477 17.5001 17.8477Z" fill="#9CCC65"/>
</g>
<defs>
<filter id="filter0_d_645_24189" x="0.5" y="0.5" width="34" height="40" filterUnits="userSpaceOnUse" color-interpolation-filters="sRGB">
<feFlood flood-opacity="0" result="BackgroundImageFix"/>
<feColorMatrix in="SourceAlpha" type="matrix" values="0 0 0 0 0 0 0 0 0 0 0 0 0 0 0 0 0 0 127 0" result="hardAlpha"/>
<feOffset dy="4"/>
<feGaussianBlur stdDeviation="2"/>
<feComposite in2="hardAlpha" operator="out"/>
<feColorMatrix type="matrix" values="0 0 0 0 0 0 0 0 0 0 0 0 0 0 0 0 0 0 0.25 0"/>
<feBlend mode="normal" in2="BackgroundImageFix" result="effect1_dropShadow_645_24189"/>
<feBlend mode="normal" in="SourceGraphic" in2="effect1_dropShadow_645_24189" result="shape"/>
</filter>
</defs>
</svg>
